<?xml version="1.0" ?><svg xmlns="http://www.w3.org/2000/svg" width="64" height="64" viewBox="0 0 64 64" fill="none"><g transform="translate(0.00, 13.14) scale(0.1109)"><g clip-path="url(#clip0_3091_6084)">
<path d="M472.98 89.0906C473.51 78.4006 481.77 71.6506 491.2 72.1706C500.64 72.6906 508.17 80.3306 507.65 91.0106C507.12 101.711 498.87 108.271 489.43 107.741C479.99 107.221 472.45 99.7806 472.98 89.0806V89.0906ZM504.95 90.8706C505.39 82.0206 499.17 75.0206 491.08 74.5706C482.99 74.1206 476.11 80.4006 475.67 89.2406C475.23 98.0906 481.45 104.911 489.55 105.361C497.64 105.811 504.51 99.7206 504.95 90.8706ZM484.45 79.7506L490.8 80.1006C494.46 80.3006 498.05 81.8006 497.83 86.4106C497.71 88.8106 495.87 90.9206 493.72 91.3606L498.13 99.7406L494.86 99.5606L491.36 92.1506L486.54 91.8806L486.18 99.0706L483.49 98.9206L484.44 79.7506H484.45ZM489.55 89.6406C492.63 89.8106 494.8 89.0106 494.93 86.4306C495.04 84.2206 493.96 82.6806 490.3 82.4806L487.03 82.3006L486.67 89.4806L489.56 89.6406H489.55Z" fill="#502C1E"/>
<path d="M68.54 336.83C56.87 336.83 46.13 331.46 39.83 322.47C36.57 317.82 34.13 312.11 32.97 306.4C22.21 253.66 12.55 205.52 3.44 159.23C2.18 152.84 2.19 145.96 3.46 139.87C6.77 124.03 19.26 113.38 34.53 113.38C40.29 113.38 46.19 114.96 51.59 117.96C56.19 120.51 60.62 124.03 64.75 128.43C76.86 141.31 89.05 154.47 100.84 167.2C101.06 167.44 101.28 167.68 101.5 167.92L108.22 154.87C115.04 141.62 121.86 128.37 128.72 115.14C132.77 107.32 138.88 101.31 146.38 97.78C151.15 95.53 156.07 94.39 161.01 94.39C164.6 94.39 168.07 95 171.32 96.17C168.63 65.34 190.38 37.94 222.11 33C225.33 32.5 228.6 32.25 231.82 32.25C261.36 32.25 285.86 52.89 290.06 81.33C292.25 96.17 288.57 110.59 280.75 122.27C281.47 122.23 282.2 122.2 282.94 122.2C286.38 122.2 289.89 122.7 293.36 123.69C298.48 125.14 303.8 127.71 309.18 131.34C317.77 137.13 326.39 143.02 334.93 148.88C333.3 143.32 331.64 137.88 330.1 132.8C329.52 130.89 328.62 128.76 327.67 126.51C327.31 125.66 326.96 124.81 326.61 123.97C322.81 114.7 323.1 104.27 327.4 95.37C331.72 86.44 339.74 79.72 349.42 76.92C353.53 75.73 357.58 75.13 361.46 75.13C363.39 75.13 365.28 75.28 367.11 75.57C365.73 72.37 364.68 69.01 364.03 65.53C358.61 36.73 377.45 9.53 406.94 3.6C410.56 2.87 414.24 2.5 417.9 2.5C442.99 2.5 464.74 19.99 469.61 44.09C472.35 57.64 469.56 71.58 461.74 83.34C458.31 88.5 454.12 92.95 449.33 96.58C455.41 101.39 459.82 108.38 461.76 116.89C461.93 117.65 462.09 118.41 462.26 119.24L462.55 120.67L464.41 132.36C467.07 128.79 470.9 126.2 475.56 124.98C477.45 124.48 479.36 124.23 481.24 124.23C485.09 124.23 488.76 125.27 491.97 127.24C497.55 119.87 502.95 115.33 505.71 113.25L506.32 112.79L506.96 112.38C510.24 110.28 511.94 109.55 512.5 109.32L513.25 109C515.23 108.14 519.51 106.28 526.33 106.28C545.59 106.28 561.26 122.57 561.26 142.59C561.26 154.04 555.99 164.92 547.14 171.74C545.95 172.72 543.14 175.7 543.06 178.77C543.02 180.41 544.97 183.54 548.54 187.58C558.79 199.15 575.95 218.52 573.58 248.5C572.22 265.61 562.39 282.06 547.92 291.45C539.62 296.83 530.29 299.68 520.93 299.68C514.49 299.68 508.24 298.36 502.34 295.75C492.4 291.35 484.93 282.82 482.34 272.94C481.8 270.87 481.51 268.82 481.42 266.82C477.95 276.29 470.54 284.07 460.63 287.64C456.14 289.26 451.54 290.08 446.97 290.08C434.16 290.08 422.88 283.62 416.8 272.8C415.13 269.83 413.98 266.72 413.16 263.76C408.12 267.29 401.98 269.3 395.22 269.3C391.84 269.3 388.37 268.8 384.92 267.81C379.87 266.37 374.8 263.9 369.42 260.27C365.57 257.67 361.72 255.03 357.88 252.39C358.31 253.63 358.73 254.87 359.15 256.1C365.61 275.05 355.95 294.62 336.68 301.64C332.77 303.06 328.71 303.78 324.6 303.78C309.88 303.78 297.01 294.67 291.81 280.58C289.21 273.53 286.68 266.39 284.22 259.34C285.46 270.84 286.69 282.44 287.86 293.94C289.65 311.65 277.54 327.75 259.69 331.37C256.98 331.92 254.24 332.2 251.55 332.2C237.43 332.2 225.38 324.52 220.01 312.62C214.4 316.02 207.85 317.88 201.11 317.88C199.53 317.88 197.93 317.78 196.35 317.58C181.05 315.65 170.06 305.93 166.18 290.91C163.17 279.25 160.13 267.5 157.03 255.54C152.86 264.34 145.28 271.57 135.97 274.6C131.4 276.09 127.22 276.81 123.19 276.81C113.19 276.81 104.68 272.45 97.19 263.48L95.74 261.74C98.31 272.34 100.91 283.15 103.39 293.85C107.33 310.87 99.51 326.15 82.97 333.74C78.57 335.76 73.58 336.82 68.55 336.82L68.54 336.83ZM473.21 187.45C476.17 205.87 479.16 224.28 482.16 242.69L483.14 248.71C483.43 250.49 483.58 252.27 483.61 254.02C485.33 249.5 487.86 245.63 490.41 242.83C492.82 240.2 495.21 238.32 497.26 236.93C497.22 236.88 497.17 236.83 497.12 236.78C481.48 219.13 473.84 201.08 473.89 181.77C473.32 181.64 472.77 181.49 472.22 181.31C472.55 183.35 472.88 185.4 473.2 187.44L473.21 187.45ZM198.62 139.58C200.15 145.04 201.65 150.5 203.12 155.85C204.23 151.68 206.06 147.88 208.5 144.56C205.07 143.2 201.76 141.54 198.62 139.58Z" stroke="#502C1E" stroke-width="5" stroke-miterlimit="10"/>
<path d="M219.7 268.11C216.54 256.32 213.32 244.54 210.03 232.78C204.94 214.61 199.72 196.46 194.63 178.29C190.54 163.7 186.64 149.07 182.46 134.51C180.97 129.33 179.38 124.06 176.97 119.28C171.93 109.3 162.18 106.01 152.44 110.6C147.48 112.94 143.83 116.82 141.33 121.66C131.55 140.54 121.83 159.45 112.09 178.35C109.73 182.92 107.36 187.49 104.89 192.27C104.09 191.46 103.6 191 103.14 190.51C86.9301 173.04 70.7801 155.5 54.4501 138.14C51.6301 135.14 48.3201 132.34 44.7301 130.35C32.7301 123.69 20.1601 129.33 17.3501 142.76C16.4301 147.16 16.4901 152.06 17.3501 156.49C27.0101 205.55 36.8701 254.57 46.8701 303.57C47.6401 307.33 49.2501 311.2 51.4501 314.34C56.9001 322.11 68.4901 324.8 77.0701 320.87C87.4701 316.1 92.0601 307.74 89.5901 297.07C85.3001 278.56 80.7401 260.11 76.2801 241.64C73.7601 231.2 71.2001 220.76 68.6801 210.32C68.4601 209.43 68.4101 208.49 68.1901 206.88C69.5201 208.39 70.3601 209.29 71.1501 210.23C83.4601 224.95 95.7601 239.69 108.08 254.41C114.84 262.49 121.57 264.41 131.6 261.14C140.65 258.19 147.32 247.73 146.27 238.32C145.55 231.9 142.43 226.88 137.6 222.96C142.6 210.34 147.53 197.89 152.47 185.44C152.71 185.46 152.95 185.48 153.18 185.5C154.83 191.44 156.56 197.35 158.11 203.31C165.41 231.32 172.69 259.34 179.92 287.37C182.33 296.7 188.58 302.32 198.14 303.53C211.83 305.25 223.41 294.99 222.68 281.29C222.44 276.86 220.89 272.47 219.72 268.11H219.7Z" fill="#502C1E"/>
<path d="M266.29 225.561C264.44 208.471 259.75 166.661 259.26 162.851C257.9 152.211 249.63 143.161 234.51 145.021C223.61 146.361 214.96 154.251 216.14 168.121C217.43 183.211 219.4 198.251 221.06 213.311C223.49 235.451 225.83 257.611 228.35 279.741C229.27 287.801 229.84 296.011 231.88 303.821C234.67 314.501 245.32 319.841 256.87 317.501C267.5 315.341 274.84 306.021 273.76 295.391C271.4 272.101 268.82 248.841 266.3 225.571L266.29 225.561Z" fill="#502C1E"/>
<path d="M424.68 92.5203C445.81 88.2703 459.9 67.5703 455.72 46.9003C451.54 26.2503 431.13 13.1903 409.74 17.4903C387.9 21.8803 373.99 41.7603 377.97 62.9003C381.76 83.0003 403.48 96.7803 424.68 92.5203ZM444.84 46.4403C445.3 48.7303 445.43 51.0303 445.26 53.2703C439.58 41.5403 420.69 26.1903 420.69 26.1903C432.39 26.7103 442.48 34.7703 444.84 46.4403Z" fill="#502C1E"/>
<path d="M237.77 134.17C262.38 130.44 279.64 107.57 276.06 83.4003C272.49 59.2403 249.51 43.0803 224.3 47.0103C199.25 50.9103 182.27 73.0903 185.73 97.4103C189.06 120.88 213.15 137.89 237.77 134.17ZM260.96 73.3303C262.76 77.0703 264.29 81.1203 262.53 85.9703C252.25 72.1703 240.38 64.7703 224.3 59.0803C235.45 55.1503 255.12 61.1903 260.96 73.3203V73.3303Z" fill="#502C1E"/>
<path d="M537.93 196.991C531.46 189.681 528.75 184.131 528.89 178.431C529.14 168.551 536.71 161.951 538.36 160.621C543.82 156.471 547.08 149.731 547.08 142.601C547.08 130.391 537.77 120.461 526.32 120.461C522.44 120.461 520.33 121.381 518.81 122.041L518.04 122.371C516.95 122.831 515.11 123.991 514.56 124.351L514.38 124.461L514.21 124.591C508.77 128.671 490.83 144.541 488.25 177.191C486.87 194.621 493.24 211.041 507.73 227.381C513.32 233.691 514.17 236.981 513.57 240.331C512.37 246.991 507.02 245.671 500.85 252.401C497.22 256.371 494.46 263.301 496.05 269.351C497.64 275.441 502.54 280.341 508.07 282.791C512.15 284.591 516.47 285.511 520.92 285.511C527.53 285.511 534.19 283.451 540.2 279.561C551.05 272.521 558.42 260.201 559.44 247.391C561.34 223.411 547.25 207.511 537.92 196.981L537.93 196.991Z" fill="#502C1E"/>
<path d="M392.67 141.441C389.61 128.861 385.29 116.541 380.92 104.321C376.36 91.5611 366.26 86.8111 353.38 90.5311C341.2 94.0511 334.97 106.911 339.75 118.581C341.12 121.921 342.64 125.221 343.69 128.661C346.88 139.141 350.07 149.641 352.88 160.231C354.7 167.071 355.85 174.081 357.55 182.201C356.11 180.951 355.24 180.041 354.23 179.341C336.61 167.221 319.03 155.041 301.3 143.091C297.7 140.661 293.67 138.501 289.53 137.321C277.66 133.951 267.43 139.781 265.55 151.081C264.83 155.401 265.07 160.231 266.25 164.441C268.7 173.231 272.04 181.781 275.06 190.411C279.88 204.151 284.74 217.871 289.58 231.601C294.75 246.291 299.73 261.061 305.12 275.671C309.27 286.911 321.01 292.261 331.84 288.311C343.96 283.901 349.77 272.471 345.75 260.661C341.74 248.911 337.57 237.211 333.5 225.481C332.55 222.731 331.76 219.931 330.9 217.151C333.08 217.891 334.57 218.911 336.05 219.941C349.81 229.491 363.5 239.141 377.37 248.511C380.88 250.881 384.79 253.021 388.82 254.171C401.78 257.871 412.03 250.361 412.68 236.891C412.86 233.211 412.6 229.391 411.81 225.801C405.58 197.641 399.5 169.441 392.68 141.431L392.67 141.441Z" fill="#502C1E"/>
<path d="M476.46 138.691C473.81 139.391 472.27 141.221 471.88 143.941C471.06 149.621 470.24 155.291 469.5 160.971C469.37 161.941 469.5 163.021 469.79 163.961C470.59 166.581 473.43 168.311 476.34 168.111C479.39 167.891 481.78 165.971 482.31 163.191C482.85 160.321 484.35 148.741 484.79 145.861C485.08 143.991 484.82 142.181 483.51 140.711C481.6 138.581 479.16 137.981 476.47 138.681L476.46 138.691Z" fill="#502C1E"/>
<path d="M459.21 189.7C455.64 167.48 452.12 145.26 448.62 123.25C448.37 122.04 448.17 121.04 447.95 120.04C445.38 108.72 436.3 101.44 422.26 103.96C411.17 105.95 403.27 114.67 405.21 127.7C408.68 151.08 412.58 174.39 416.33 197.72C419.37 216.59 422.37 235.46 425.6 254.3C426.28 258.25 427.24 262.4 429.17 265.84C434.29 274.94 445.18 278.14 455.85 274.29C465.29 270.89 470.82 261.18 469.16 250.97C465.84 230.54 462.51 210.12 459.22 189.68L459.21 189.7Z" fill="#502C1E"/>
</g><defs>
<clipPath id="clip0_3091_6084">
<rect width="576.3" height="339.33" fill="white"/>
</clipPath>
</defs></g></svg>