<svg width="20" height="20" viewBox="0 0 20 20" fill="none" xmlns="http://www.w3.org/2000/svg">
<path fill-rule="evenodd" clip-rule="evenodd" d="M3.62481 17.6856C2.8801 17.8808 2.2033 17.1966 2.40667 16.4541L2.98163 14.3549C3.05216 14.0974 3.01407 13.8237 2.89285 13.5858C2.31633 12.4544 2.01515 11.2006 2.01669 9.92687C2.01855 5.48701 5.63166 1.875 10.0716 1.875C12.2262 1.87609 14.2485 2.71456 15.7695 4.23659C17.2904 5.75862 18.1272 7.78171 18.1265 9.93333C18.1245 14.3729 14.5108 17.9855 10.0715 17.9855H10.068C8.85327 17.985 7.65755 17.7104 6.57203 17.1866C6.34244 17.0758 6.08166 17.0413 5.83507 17.106L3.62481 17.6856ZM10.074 3.23522C6.38112 3.23522 3.3779 6.23735 3.37658 9.92741C3.37477 11.1875 3.7296 12.4223 4.40006 13.4892C4.50156 13.6505 4.53068 13.8471 4.48032 14.0309L4.34059 14.541C4.1372 15.2836 4.81398 15.9678 5.55869 15.7725L6.14172 15.6197C6.31775 15.5735 6.50492 15.5997 6.66148 15.6925C7.68912 16.3024 8.8674 16.6249 10.069 16.6255H10.0715C13.7616 16.6255 16.7648 13.6231 16.7662 9.93278C16.769 9.05321 16.5973 8.18183 16.261 7.36908C15.9248 6.55633 15.4306 5.81836 14.8072 5.19789C14.1872 4.57402 13.4497 4.07932 12.6372 3.74243C11.8248 3.40554 10.9536 3.23314 10.074 3.23522Z" fill="#FAEADE"/>
<path d="M3.5714 14.2857L2.85712 17.1429L6.0714 16.4286L7.14283 16.7857L11.4285 17.1429L15.7143 14.6429L17.5 9.64286L16.0714 5.35714L11.7857 2.5L7.85712 2.85714L4.64283 5L2.85712 7.85714V12.1429L3.5714 14.2857Z" fill="#FAEADE"/>
<path d="M7.60548 6.21272C7.74878 6.21852 7.90752 6.2253 8.05838 6.56041C8.16113 6.78905 8.33388 7.2148 8.47186 7.55484C8.57409 7.8068 8.65723 8.0117 8.67866 8.05452C8.72902 8.15513 8.76241 8.27292 8.69541 8.40703C8.68511 8.42764 8.67562 8.44707 8.66655 8.46562C8.61662 8.56774 8.57974 8.64316 8.49442 8.74257C8.46033 8.78229 8.42508 8.82513 8.38987 8.86794C8.32095 8.95173 8.25215 9.03537 8.19238 9.09508C8.09144 9.19536 7.98634 9.30439 8.10392 9.50572C8.2215 9.70704 8.62535 10.3659 9.22363 10.8993C9.86757 11.4735 10.4268 11.7159 10.7098 11.8387C10.7648 11.8625 10.8094 11.8818 10.8421 11.8982C11.0435 11.9988 11.1608 11.9819 11.2783 11.8476C11.3957 11.7133 11.781 11.2602 11.9153 11.0587C12.0496 10.8573 12.1837 10.8907 12.3682 10.9579C12.5526 11.0251 13.542 11.512 13.7434 11.6127C13.783 11.6325 13.8201 11.6503 13.8543 11.6669C13.9944 11.7344 14.0889 11.78 14.1293 11.8476C14.1796 11.9318 14.1794 12.3344 14.0118 12.8044C13.8442 13.2744 13.0226 13.7277 12.6535 13.7612C12.6179 13.7644 12.5826 13.7686 12.5463 13.7729C12.2052 13.8129 11.7747 13.8635 10.2383 13.2576C8.34599 12.5114 7.09875 10.6613 6.84281 10.2817C6.82206 10.2509 6.80783 10.2298 6.80029 10.2197L6.79791 10.2165C6.68892 10.0708 5.97858 9.12097 5.97858 8.13827C5.97858 7.21188 6.43382 6.72607 6.64345 6.50236C6.65789 6.48695 6.67117 6.47278 6.68305 6.4598C6.8674 6.25837 7.08548 6.20801 7.21969 6.20801L7.60548 6.21272Z" fill="#222123"/>
</svg>
